<?xml version="1.0" encoding="UTF-8"?>
<!DOCTYPE svg PUBLIC "-//W3C//DTD SVG 1.1//EN" "http://www.w3.org/Graphics/SVG/1.1/DTD/svg11.dtd">
<!-- Creator: CorelDRAW -->
<svg xmlns="http://www.w3.org/2000/svg" xml:space="preserve" width="342.526mm" height="174.422mm" version="1.1" style="shape-rendering:geometricPrecision; text-rendering:geometricPrecision; image-rendering:optimizeQuality; fill-rule:evenodd; clip-rule:evenodd"
viewBox="0 0 34271.41 17451.76"
 xmlns:xlink="http://www.w3.org/1999/xlink"
 xmlns:xodm="http://www.corel.com/coreldraw/odm/2003">
 <defs>
  <style type="text/css">
   <![CDATA[
    .fil0 {fill:#152632}
    .fil2 {fill:#F97216}
    .fil1 {fill:url(#id0)}
   ]]>
  </style>
  <linearGradient id="id0" gradientUnits="userSpaceOnUse" x1="25032.84" y1="2277.45" x2="25032.84" y2="10197.86">
   <stop offset="0" style="stop-opacity:1; stop-color:#F97216"/>
   <stop offset="1" style="stop-opacity:1; stop-color:#2563E8"/>
  </linearGradient>
 </defs>
 <g id="Camada_x0020_1">
  <metadata id="CorelCorpID_0Corel-Layer"/>
  <g id="_1930456031808">
   <path class="fil0" d="M1623.34 8583.76c-364.97,-281.87 -1008.7,-212.52 -1361.79,26.49 -660.17,446.85 108.43,1890.69 351.7,2544.75 321.93,865.43 556.95,1753.18 815.05,2653.98 163.53,570.85 206.63,875.98 720.94,1043.44 457.07,148.75 1080.72,109.63 1434.73,-133.93 626.93,-431.21 475.41,-2522.54 1014.93,-2417 473.63,92.67 156.38,2093.23 971.02,2497.55 392.1,194.58 1090.3,203.92 1467.04,-45.35 736.63,-487.47 815.06,-3274.29 1640.66,-4471.39 457.35,-663.29 974.26,-1033.63 901.9,-1648.17 -58.05,-493.01 -597.74,-630.75 -1149.21,-592.38 -1968.29,136.93 -1730.67,2064.96 -1758.95,3410.17 -7.44,355.74 54.47,1401.78 -345.58,1405.01 -407.79,3.28 -433.12,-845.46 -483.62,-1215.34 -98.14,-718.11 -157.01,-2510.19 -522.44,-2942.62 -247.55,-292.84 -951.23,-429.71 -1387.17,-181.64 -435.54,247.83 -456.66,632.36 -472.01,1223.93 -18.41,709.16 61.39,2733.55 -380.26,3108.22 -1128.27,608.18 -150.37,-3256.63 -1456.94,-4265.75zm31805.06 2519.16c157.04,-21.25 303.84,-58.01 429.37,-122.62 437.65,-225.29 623.41,-838.46 -95.4,-975.64 -437.25,-83.44 -1057.1,-22.59 -1355.98,-31.08l-3.87 -2135.92c-336.71,713.75 -531.7,1326.5 -1719.78,1878.97 -1277.3,594 -2025.13,-17.66 -3036.03,334.9 -1136.16,396.25 -1320.7,1506.86 -770.33,2296.92 384.01,551.17 1578.98,643.26 1882.44,806.16 527,282.86 -7.67,1083.89 -1367.1,239.93 -512.63,-318.29 -911.18,207.32 -856.82,695.54 93.3,838.42 1854.85,974.49 2685.14,761.28 1232.59,-316.44 1436.74,-1505.53 1025.14,-2205.11 -549.61,-934.09 -2481.15,-698.2 -2222.3,-1340.9 306.46,-425.61 1004.83,-59.78 1372.45,91.63 252.58,104.07 449.21,33.75 644.14,-122.77 72.92,-61.29 153.38,-144.35 153.38,-144.35l270.13 0c144.64,-0.62 289.21,-1.6 434.01,-1.6 0,1226.12 -224.52,2734.01 388.74,3406.82 636.75,698.61 2225.07,501.39 2669.85,-225.27 346.11,-565.44 381.25,-1158.93 232.81,-1505.39 -98.52,-229.97 -277.94,-351.11 -500.97,-283.03 -319.69,97.55 -389.36,393.05 -516.02,665.7 -134.32,289.21 -292.88,351.61 -469.38,351.61 -401.47,0 -337.85,-797.54 -338.29,-1070.35 -0.07,-42.57 0.08,-85.9 0.42,-129.85l0.01 -0.15c2.55,-324.99 16.02,-685.13 34.49,-1039.42l5.66 -170.67c0,0 693.71,10.11 1024.07,-25.36zm-9844.6 1014.79c117.02,-1760.28 2182.96,-730.46 1006.97,-182.51 -291.17,135.71 -659.48,168.54 -1006.97,182.51zm54.53 971.19c877.6,-127.12 1407.26,-145.29 2051.4,-548.86 423.82,-265.61 660.29,-1216.03 286.21,-1876.79 -763.64,-1348.74 -4271.51,-1030.57 -3820.1,2451.97 53.37,411.66 134.56,633.18 314.19,955.22 509.69,913.72 1897.67,1068.6 2836.72,683.2 587.88,-241.19 1090.41,-658.73 698.84,-1230.28 -165.95,-242.06 -228.28,-249.51 -506.46,-131.1 -249.34,106.06 -504.21,291.17 -898.26,325.56 -497.45,43.33 -973.68,-183.55 -962.54,-628.91zm-2709.89 2730.96c0,650.48 -2411,635.48 -2411,-5.42 0,-659.72 2411,-560.93 2411,5.42zm-1359.6 -4680.62c986.6,-228.79 1117.01,1283.55 331.5,1487.24 -992.37,257.41 -1153.47,-1296.7 -331.5,-1487.24zm1902.99 -322.44c339.29,-291.17 2365.69,-1131.49 1722.89,-1774.66 -474.72,-475 -1366.98,470.86 -1697.1,773.63 -544.13,499.07 -683.72,322.45 -1133.56,197.4 -761.22,-211.42 -1743.38,-43.56 -2271.07,579.8 -545.29,644.13 -576.63,1648.8 4.73,2471.18 -668.32,333.06 -786.26,1167.5 -308.94,1708.24 -389.38,258.33 -695.66,601.03 -640.62,1313.02 134.62,1740.84 3296.39,1480.13 4284.55,1044.24 1189.26,-524.63 1336.34,-1833.68 411.2,-2484.62 -821.17,-577.9 -2598.24,-257.82 -2941.63,-608.59 -124.18,-126.72 -47.73,-299.36 130.98,-330.81 117.02,-20.6 395.5,34.16 532.07,39.47 227.93,8.82 506.35,-8.48 723.95,-51.36 1585.26,-312.52 1742.45,-1935.35 1182.56,-2876.94zm-6427.17 778.47c1001.84,-454.53 1031.33,1783.3 239.7,2072.74 -1098.83,401.61 -1157.52,-1656.42 -239.7,-2072.74zm-622.43 -820.3c-19.05,-647.26 82.05,-2728.19 -37.74,-3177.7 -77.61,-290.99 -368.84,-485.8 -701.44,-474.32 -299.13,10.22 -606.74,179.87 -705.36,475.01 -76.28,228.51 -50.78,520.72 -51.71,873.8 -2.88,1074.42 9.53,2149.94 10.22,3224.42 0.81,1299.12 -148.18,2928.3 1564.21,3216.94 1345.17,226.76 2528.19,-499.13 2739.62,-1973.49 156.26,-1089.72 -70.86,-2283.83 -787.64,-2716.59 -454.93,-274.66 -1087.3,-183.09 -1529.36,80.09 -291.45,173.63 -406.16,379.8 -500.8,471.84zm-4494.07 1345.45c36.99,-355.57 158.22,-660.92 355.74,-815.69 704.15,-551.63 1468.94,319.51 646.28,643.79 -289.96,114.25 -656.66,160.82 -1002.01,171.89zm54.07 982.51c543.44,-188.57 1527.16,34.56 2241.11,-788.28 543.57,-626.47 307.91,-1790.57 -449.5,-2189.47 -1223.7,-644.42 -2797.32,225.27 -3165.87,1527.34 -168.54,594.74 -194,1339.69 -2.36,1926 424.63,1298.43 1788.21,1679.32 3041.63,1189.6 1390.51,-543.27 809.69,-1630.86 282.34,-1431.21 -138.14,52.28 -333,193.48 -516.44,268.5 -363.98,148.93 -702.7,148.35 -959.94,66.7 -329.48,-104.56 -525.67,-342.23 -470.97,-569.17z"/>
   <path class="fil1" d="M24372.09 9307.23c553.89,-15.22 1117.69,116.09 1560.98,419.27l0 -3430.04c-4.99,-137.79 -11.24,-230.59 -18.93,-260.5 -66.25,-257.82 -421.34,-567.97 -822.95,-522.45 -319.74,36.3 -622.73,302.2 -693.01,617.02 -63.53,284.25 5.36,660.17 -6.35,1318.16 -3.98,601.66 -315.34,577.09 -561.04,227.93 -238.26,-338.61 -506.69,-871.55 -1102.13,-801.95 -416.27,48.58 -779.39,305.25 -1009.56,646.91 -262.09,388.85 -400.86,846.96 -715.46,974.89 -871.66,354.46 -1261.78,-846.79 -2171.87,-584.64 -1012.16,291.43 -1208.3,1262.22 -1218.67,2286.04 382.84,-454.09 932.06,-731.4 1516.32,-840.4 466.97,-87.12 956.33,-66.74 1401.04,56.81 89.58,24.89 243.51,87.27 339.67,108.15 64.36,-35.54 165.76,-126.58 207.35,-164.73 286.29,-262.58 543.71,-521.12 870.62,-738.21 525.86,-349.2 1187.55,-515.76 1686.3,-16.73 203.87,203.98 315.54,458.27 305.96,746.23 142.55,-23.91 287.25,-37.8 431.75,-41.75zm6366.73 -327.15l-2.98 10.95c0,-1868.85 0,-3737.7 0,-5606.55 19.47,-399.65 50.15,-756.22 348.31,-951.52 268.03,-175.54 787.36,-225.07 1049.61,-29.58 256.58,191.27 322.31,578.83 318.7,1011.08 -4.89,584.39 -23.39,1486.63 -138.1,2411.03 -134.15,1081.2 -574.19,2596.83 -1576.34,3165.55l0.8 -10.95zm-601.25 285l0 -4803.63c-49.52,-471.94 -390.01,-725.66 -736.45,-741.81 -438.38,-20.42 -752.21,305.42 -752.21,733.97l0 4868.79c147.63,7.97 299.73,20.48 461.26,32.3 386.37,28.27 692.76,18.56 1027.4,-89.62zm-2086.93 64.05l0 -3847.12c-15.51,-53.08 -35.02,-102.25 -59.49,-146.32 -255.97,-461.21 -1438.71,-629.08 -1459.82,544.08l15.51 4130.47c245.76,-243.04 553.33,-426.37 895.19,-545.6 215.12,-75.03 413.99,-115.93 608.61,-135.5z"/>
   <path class="fil2" d="M33607.59 3143.37c458.22,-599.99 638.72,-2171.12 550.66,-2923.74 -21.29,-182.92 -141.09,-224.35 -339.53,-219.21 -568.89,14.83 -2995.47,563.23 -3002.39,1196.87 -2.3,212.75 262.31,317.94 588.16,395.73 1066.3,254.64 1328.96,90.3 1553.19,1307.49 76.74,416.67 298.43,702.82 649.9,242.86z"/>
  </g>
 </g>
</svg>
